<svg xmlns="http://www.w3.org/2000/svg" viewBox="0 0 448 120" role="img" aria-labelledby="ngbLogoTitle ngbLogoDesc">
  <title id="ngbLogoTitle">NGB logo</title>
  <desc id="ngbLogoDesc">NGB wordmark with a favicon-inspired 2x2 brand motif.</desc>

  <g fill="#0B3C5D" transform="translate(-7 -46)">
    <path d="M523 0H333V1161Q333 1184 346 1200Q356 1213 373 1220Q395 1229 414 1225Q430 1221 440 1208L1148 210Q1167 183 1200 176Q1232 169 1266 183Q1296 195 1314 222Q1332 248 1332 281V1450H1522V281Q1522 186 1467 109Q1417 39 1337 6Q1250 -29 1161 -10Q1055 12 993 100L523 762ZM291 0V1161Q291 1194 308 1220Q326 1247 357 1259Q391 1273 422 1266Q455 1259 474 1232L1182 234Q1192 221 1209 217Q1228 213 1250 222Q1267 229 1277 243Q1289 260 1289 281V1450H1099V680L629 1343Q567 1430 461 1452Q372 1471 285 1436Q201 1401 150 1325Q100 1251 100 1161V0Z" transform="translate(0.000,160.625) scale(0.078125,-0.078125)"/>
    <path d="M1663 1450V1260H776Q554 1260 397 1103Q241 946 241 725Q241 503 397 347Q554 190 776 190H1088Q1426 190 1541 340Q1623 447 1623 725V746H804V936H1814V725Q1814 384 1692 224Q1520 0 1088 0H776Q475 0 263 212Q50 424 50 725Q50 1025 263 1237Q475 1450 776 1450ZM1663 1217H776Q572 1217 427 1073Q283 929 283 725Q283 521 427 377Q572 232 776 232H1088Q1406 232 1507 365Q1579 459 1581 704H804V513H1373Q1366 493 1356 481Q1312 423 1088 423H776Q651 423 562 511Q473 600 473 725Q473 850 562 938Q651 1027 776 1027H1663Z" transform="translate(126.719,160.625) scale(0.078125,-0.078125)"/>
    <path d="M566 0V190H1251Q1366 190 1447 271Q1529 353 1529 468Q1529 583 1447 664Q1397 715 1330 734Q1368 754 1399 785Q1481 866 1481 982Q1481 1097 1399 1178Q1318 1260 1202 1260H291V0H100V1450H1202Q1372 1450 1490 1371Q1597 1299 1641 1179Q1683 1065 1654 947Q1624 824 1529 743Q1645 670 1690 542Q1734 421 1698 296Q1661 167 1551 88Q1430 0 1251 0ZM566 232H1251Q1348 232 1417 301Q1487 370 1487 468Q1487 566 1417 635Q1348 704 1251 704H563V513H1251Q1269 513 1283 500Q1296 487 1296 468Q1296 449 1283 436Q1269 423 1251 423H566ZM563 746H1202Q1300 746 1369 815Q1438 884 1438 982Q1438 1079 1369 1148Q1300 1217 1202 1217H333V0H523V1027H1202Q1221 1027 1234 1014Q1248 1000 1248 982Q1248 963 1234 950Q1221 936 1202 936H563Z" transform="translate(273.906,160.625) scale(0.078125,-0.078125)"/>
  </g>

  <g>
    <rect x="403" y="0" width="16" height="16" fill="#0B3C5D"/>
    <rect x="422" y="0" width="16" height="16" fill="#0B3C5D"/>
    <rect x="403" y="19" width="16" height="16" fill="#0B3C5D"/>
    <rect x="422" y="19" width="16" height="16" fill="#0F766E"/>
  </g>
</svg>
